<svg xmlns="http://www.w3.org/2000/svg" viewBox="0 0 900 540" role="img" aria-labelledby="title desc">
<title id="title">Biochemistry</title><desc id="desc">Protein/enzyme structure, ATP and metabolic pathway motifs.</desc>
<defs>
 <linearGradient id="bg" x1="0" y1="0" x2="1" y2="1"><stop stop-color="#0a2b2e"/><stop offset="1" stop-color="#0e4c4e"/></linearGradient>
 <radialGradient id="glow"><stop stop-color="#ffffff" stop-opacity=".22"/><stop offset="1" stop-color="#ffffff" stop-opacity="0"/></radialGradient>
</defs>
<rect width="900" height="540" rx="34" fill="url(#bg)"/>
<circle cx="700" cy="125" r="150" fill="url(#glow)"/>
<g opacity=".13" fill="none" stroke="#fff" stroke-width="2"><circle cx="700" cy="125" r="92"/><circle cx="700" cy="125" r="126"/><path d="M55 430 C220 280 420 510 845 165"/></g>
<path d="M165 160 C240 110 330 185 405 135 C480 85 555 160 625 115" fill="none" stroke="#b9df38" stroke-width="10"/><g fill="#eaf7f3"><ellipse cx="245" cy="240" rx="80" ry="55"/><ellipse cx="420" cy="315" rx="90" ry="62"/><ellipse cx="610" cy="240" rx="70" ry="48"/></g><g fill="none" stroke="#15464b" stroke-width="7"><path d="M200 235c30-40 60 40 90 0"/><path d="M370 305c35-45 70 45 100 0"/><path d="M570 235c25-35 50 35 75 0"/></g><circle cx="690" cy="390" r="65" fill="none" stroke="#b9df38" stroke-width="9"/><circle cx="690" cy="390" r="24" fill="#b9df38"/><text x="52" y="70" fill="#b9df38" font-family="Arial, sans-serif" font-size="17" font-weight="800" letter-spacing="4">BIOCHEMISTRY</text>
</svg>